<!-- icon666.com - MILLIONS vector ICONS FREE --><svg xmlns="http://www.w3.org/2000/svg" xmlns:xlink="http://www.w3.org/1999/xlink" viewBox="0 0 48 60" version="1.1"><title>048 - Bolt </title><desc>Created with Sketch.</desc><defs></defs><g id="Page-1" stroke="none" stroke-width="1" fill="none" fill-rule="evenodd"><g id="048---Bolt-" fill-rule="nonzero"><g id="Icons" transform="translate(1.000000, 1.000000)"><path d="M12,16 L34,16 L34,29.862 C34,30.4290329 33.7747471,30.9728415 33.3737943,31.3737943 C32.9728415,31.7747471 32.4290329,32 31.862,32 L14.138,32 C13.5709671,32 13.0271585,31.7747471 12.6262057,31.3737943 C12.2252529,30.9728415 12,30.4290329 12,29.862 L12,16 Z" id="Shape" fill="#37474F" style="fill: rgb(0, 0, 0);"></path><path d="M12,16 L31,16 L31,29.862 C31,30.4290329 30.7747471,30.9728415 30.3737943,31.3737943 C29.9728415,31.7747471 29.4290329,32 28.862,32 L14.138,32 C13.5709671,32 13.0271585,31.7747471 12.6262057,31.3737943 C12.2252529,30.9728415 12,30.4290329 12,29.862 L12,16 Z" id="Shape" fill="#607D8B" style="fill: rgb(0, 0, 0);"></path><rect id="Rectangle-path" fill="#02A9F4" x="12" y="0" width="22" height="18" style="fill: rgb(0, 0, 0);"></rect><path d="M14,0 L14,18 L1,18 C0.44771525,18 0,17.5522847 0,17 L0,1 C0,0.44771525 0.44771525,0 1,0 L14,0 Z" id="Shape" fill="#2296F3" style="fill: rgb(0, 0, 0);"></path><path d="M46,1 L46,17 C46,17.5522847 45.5522847,18 45,18 L32,18 L32,0 L45,0 C45.5522847,0 46,0.44771525 46,1 Z" id="Shape" fill="#1566C0" style="fill: rgb(0, 0, 0);"></path><path d="M43,1 L43,17 C43,17.5522847 42.5522847,18 42,18 L32,18 L32,0 L42,0 C42.5522847,0 43,0.44771525 43,1 Z" id="Shape" fill="#2296F3" style="fill: rgb(0, 0, 0);"></path><path d="M14,32 L32,32 L32,57 C32,57.5522847 31.5522847,58 31,58 L15,58 C14.4477153,58 14,57.5522847 14,57 L14,32 Z" id="Shape" fill="#607D8B" style="fill: rgb(0, 0, 0);"></path><path d="M14,32 L29,32 L29,57 C29,57.5522847 28.5522847,58 28,58 L15,58 C14.4477153,58 14,57.5522847 14,57 L14,32 Z" id="Shape" fill="#CFD8DC" style="fill: rgb(0, 0, 0);"></path></g><g id="Outline" fill="#000000"><path d="M46,0 L2,0 C0.8954305,-6.76353751e-17 0,0.8954305 0,2 L0,18 C0,19.1045695 0.8954305,20 2,20 L12,20 L12,31 C12.0052514,32.2667854 12.8056491,33.3937454 14,33.816 L14,58 C14.0050064,59.0438465 14.8119641,59.9082884 15.853,59.985 C15.862,59.985 15.87,59.99 15.879,59.99 L15.9,59.99 C15.935,59.99 15.967,60 16,60 L32,60 C33.1045695,60 34,59.1045695 34,58 L34,33.816 C35.1943509,33.3937454 35.9947486,32.2667854 36,31 L36,20 L46,20 C47.1045695,20 48,19.1045695 48,18 L48,2 C48,0.8954305 47.1045695,6.76353751e-17 46,0 Z M32,2 L32,18 L16,18 L16,2 L32,2 Z M2,2 L14,2 L14,18 L2,18 L2,2 Z M32,35.63 L32,38.4 C30.1,39.369 23.114,42.676 16,42.971 L16,39.971 C22.737,39.712 29.182,36.99 32,35.63 Z M32,43.4 C30.1,44.368 23.114,47.676 16,47.971 L16,44.971 C22.738,44.715 29.183,41.993 32,40.633 L32,43.4 Z M32,45.635 L32,48.399 C30.1,49.368 23.114,52.676 16,52.971 L16,49.971 C22.738,49.712 29.183,46.99 32,45.63 L32,45.635 Z M16,54.968 C22.738,54.712 29.184,51.989 32,50.63 L32,53.4 C30.108,54.367 23.13,57.686 16,57.986 L16,54.968 Z M16,37.968 L16,34 L30.755,34 C27.91,35.328 22,37.717 16,37.966 L16,37.968 Z M26.133,58 C28.1366383,57.3343774 30.09621,56.5427999 32,55.63 L32,58 L26.133,58 Z M34,31 C34,31.5522847 33.5522847,32 33,32 L15,32 C14.4477153,32 14,31.5522847 14,31 L14,20 L34,20 L34,31 Z M35,18 L34,18 L34,2 L46,2 L46,18 L35,18 Z" id="Shape" fill="#000000" style="fill: rgb(255, 255, 255);"></path></g></g></g></svg>